<?xml version="1.0" standalone="no"?>
<!DOCTYPE svg PUBLIC "-//W3C//DTD SVG 20010904//EN"
 "http://www.w3.org/TR/2001/REC-SVG-20010904/DTD/svg10.dtd">
<svg version="1.0" xmlns="http://www.w3.org/2000/svg"
 width="846.000000pt" height="846.000000pt" viewBox="0 0 846.000000 846.000000"
 preserveAspectRatio="xMidYMid meet">
<metadata>
Created by potrace 1.11, written by Peter Selinger 2001-2013
</metadata>
<g transform="translate(0.000000,846.000000) scale(0.100000,-0.100000)"
fill="#000000" stroke="none">
<path d="M3535 7820 c-16 -3 -48 -5 -70 -4 -22 1 -55 -2 -73 -8 -18 -5 -53
-12 -77 -14 -24 -2 -61 -11 -82 -19 -32 -14 -176 -63 -208 -71 -166 -43 -292
-83 -372 -120 -17 -8 -34 -14 -38 -14 -4 0 -21 -6 -38 -14 -18 -7 -68 -26
-112 -41 -44 -15 -100 -36 -125 -47 -25 -11 -58 -26 -75 -33 -16 -7 -56 -24
-88 -39 -32 -14 -62 -26 -67 -26 -10 0 -121 -43 -195 -76 -44 -19 -52 -21
-107 -29 -39 -5 -95 -25 -188 -68 -30 -14 -107 -48 -170 -77 -115 -52 -223
-108 -270 -140 -14 -9 -95 -51 -180 -94 -192 -95 -177 -86 -285 -176 -95 -78
-118 -101 -142 -137 -8 -13 -33 -28 -56 -34 -97 -26 -201 -125 -223 -215 -4
-15 -22 -47 -40 -71 -56 -73 -88 -158 -99 -263 -4 -30 -10 -71 -14 -90 -4 -19
-9 -66 -10 -105 -3 -89 -8 -143 -16 -154 -15 -26 -22 -182 -11 -270 7 -59 5
-66 -17 -90 -76 -83 -96 -176 -73 -330 3 -20 8 -56 11 -81 3 -25 7 -56 10 -70
5 -27 19 -227 18 -275 0 -51 -12 -219 -17 -240 -10 -48 -20 -210 -21 -320 0
-165 43 -316 109 -387 l25 -27 -20 -58 c-21 -58 -30 -208 -17 -278 22 -123 80
-228 175 -318 42 -40 46 -50 58 -157 6 -48 12 -85 15 -85 1 0 3 -11 5 -25 10
-94 96 -355 160 -485 29 -60 78 -146 109 -190 31 -44 84 -123 119 -175 35 -52
70 -102 78 -110 8 -8 29 -39 47 -68 91 -149 234 -300 360 -379 31 -20 80 -50
107 -68 47 -31 93 -53 178 -88 20 -9 37 -14 37 -12 0 3 24 -5 53 -16 51 -21
135 -48 166 -54 9 -2 54 -13 101 -25 47 -11 99 -23 115 -26 17 -3 67 -16 112
-29 44 -13 107 -26 140 -30 32 -3 78 -8 103 -11 60 -7 121 -13 205 -18 159
-11 253 -19 350 -31 22 -3 85 -7 140 -10 55 -2 127 -7 160 -10 171 -16 691
-23 1020 -14 66 2 157 0 203 -4 45 -5 194 -10 331 -12 231 -4 255 -6 324 -29
86 -28 99 -31 261 -51 65 -9 122 -18 126 -20 23 -14 415 -22 508 -10 23 3 70
16 105 29 53 20 77 22 167 20 58 -2 123 -6 145 -10 22 -3 55 -8 73 -11 18 -3
65 -15 104 -28 60 -20 93 -23 224 -24 104 -1 171 3 211 13 32 8 84 17 116 20
31 3 74 14 95 25 20 10 55 28 77 39 22 11 69 23 105 27 36 3 72 7 80 9 32 6
116 20 125 21 6 0 20 -5 33 -11 18 -9 35 -9 75 2 29 8 99 17 156 20 57 2 108
7 114 11 6 3 36 7 67 8 86 4 185 15 222 26 18 5 50 9 71 9 30 0 39 5 46 23 6
14 4 28 -5 41 -7 10 -11 23 -8 30 2 6 6 56 9 111 3 55 7 120 10 145 5 46 12
158 19 309 4 67 8 87 25 102 19 18 20 28 16 393 -4 463 0 447 -129 452 -119 5
-227 34 -277 74 -53 43 -182 169 -231 228 -52 61 -82 142 -82 222 -1 128 10
173 46 198 10 7 18 19 18 27 0 24 50 56 70 45 9 -5 20 -7 24 -3 3 3 13 -10 21
-30 8 -20 25 -41 36 -48 12 -6 65 -12 118 -14 53 -2 122 -6 153 -10 31 -4 66
-4 77 0 20 6 28 34 15 48 -7 7 -9 26 -18 192 -6 105 -12 150 -37 285 -7 33 -9
63 -5 67 3 3 -1 17 -10 31 -21 32 -11 148 17 206 10 22 19 44 19 50 0 5 14 30
30 56 66 102 108 304 80 375 -7 17 -14 43 -15 59 -2 15 -8 38 -14 50 -28 52
-130 91 -206 78 -43 -7 -175 -7 -215 1 -79 14 -160 45 -160 60 0 16 -3 23 -21
49 -10 14 -19 30 -19 35 0 18 -106 119 -167 161 -55 38 -61 45 -76 99 -20 74
-16 221 8 278 10 22 24 62 32 88 20 66 69 129 128 163 47 26 56 28 165 27 63
0 149 -3 190 -6 41 -4 83 -7 92 -7 9 0 29 -13 45 -29 16 -15 40 -32 53 -36 14
-4 47 -21 74 -37 62 -38 80 -41 100 -19 20 21 23 103 6 145 -15 40 -21 183 -8
215 15 37 8 336 -8 363 -3 4 -7 69 -10 144 -3 76 -7 141 -10 145 -3 5 5 23 18
40 25 33 29 95 15 214 -14 125 -17 166 -22 360 -5 224 -12 306 -25 350 -11 34
-52 85 -69 85 -6 0 -11 4 -11 9 0 12 -79 28 -175 36 -115 8 -157 14 -275 35
-58 11 -123 22 -145 25 -22 3 -51 7 -65 10 -44 10 -273 6 -307 -6 -18 -6 -36
-8 -41 -5 -5 3 -49 8 -98 11 -92 6 -137 11 -189 20 -113 19 -160 25 -235 30
-47 2 -121 7 -165 10 -44 2 -170 7 -280 10 -447 12 -513 15 -585 20 -147 12
-249 16 -540 18 -163 2 -300 6 -306 10 -18 11 -144 20 -304 22 -102 1 -165 6
-185 14 -17 8 -85 15 -155 18 -209 8 -643 10 -675 3z m4215 -3436 c0 -8 -5
-12 -10 -9 -6 4 -8 11 -5 16 9 14 15 11 15 -7z m-35 -168 c54 -2 112 1 127 6
20 7 49 5 105 -7 159 -35 200 -73 208 -191 2 -38 5 -69 6 -69 1 0 3 -42 5 -94
2 -51 10 -118 19 -147 18 -64 10 -84 -46 -112 -28 -14 -34 -23 -34 -50 0 -41
-25 -50 -93 -32 -58 14 -68 22 -98 82 -31 62 -56 72 -158 64 l-78 -6 -42 43
c-90 95 -218 310 -232 392 -2 11 -6 32 -10 46 -4 20 -1 28 13 33 10 3 33 17
51 30 28 21 40 24 95 20 34 -3 107 -6 162 -8z"/>
</g>
</svg>
